<?xml version="1.0" encoding="UTF-8" standalone="no"?>
<svg
   xmlns:dc="http://purl.org/dc/elements/1.1/"
   xmlns:cc="http://creativecommons.org/ns#"
   xmlns:rdf="http://www.w3.org/1999/02/22-rdf-syntax-ns#"
   xmlns:svg="http://www.w3.org/2000/svg"
   xmlns="http://www.w3.org/2000/svg"
   xmlns:sodipodi="http://sodipodi.sourceforge.net/DTD/sodipodi-0.dtd"
   xmlns:inkscape="http://www.inkscape.org/namespaces/inkscape"
   viewBox="0 0 410.66651 72.014159"
   version="1.1"
   id="svg22"
   sodipodi:docname="mastercard.svg"
   width="410.6665"
   height="72.01416"
   inkscape:version="0.92.4 (5da689c313, 2019-01-14)">
  <metadata
     id="metadata26">
    <rdf:RDF>
      <cc:Work
         rdf:about="">
        <dc:format>image/svg+xml</dc:format>
        <dc:type
           rdf:resource="http://purl.org/dc/dcmitype/StillImage" />
        <dc:title>mc_hrz_rgb_pos</dc:title>
      </cc:Work>
    </rdf:RDF>
  </metadata>
  <sodipodi:namedview
     pagecolor="#ffffff"
     bordercolor="#666666"
     borderopacity="1"
     objecttolerance="10"
     gridtolerance="10"
     guidetolerance="10"
     inkscape:pageopacity="0"
     inkscape:pageshadow="2"
     inkscape:window-width="1920"
     inkscape:window-height="1001"
     id="namedview24"
     showgrid="false"
     fit-margin-top="0"
     fit-margin-left="0"
     fit-margin-right="0"
     fit-margin-bottom="0"
     inkscape:zoom="1.4154784"
     inkscape:cx="201.5297"
     inkscape:cy="36.019999"
     inkscape:window-x="-9"
     inkscape:window-y="-9"
     inkscape:window-maximized="1"
     inkscape:current-layer="svg22" />
  <defs
     id="defs4">
    <style
       id="style2">.cls-1{fill:none;}.cls-2{fill:#231f20;}.cls-3{fill:#ff5f00;}.cls-4{fill:#eb001b;}.cls-5{fill:#f79e1b;}</style>
  </defs>
  <title
     id="title6">mc_hrz_rgb_pos</title>
  <rect
     class="cls-1"
     width="478.98999"
     height="109.97"
     id="rect8"
     x="-37.965294"
     y="-18.990839"
     style="fill:none" />
  <path
     class="cls-2"
     d="m 178.42471,48.119162 v -15 c 0,-5.66 -3.61,-9.47 -9.42,-9.52 a 9.27,9.27 0 0 0 -8.41,4.26 8.79,8.79 0 0 0 -7.91,-4.26 7.92,7.92 0 0 0 -7,3.56 v -3 h -5.21 v 23.96 h 5.26 v -13.27 c 0,-4.16 2.3,-6.36 5.86,-6.36 3.56,0 5.21,2.25 5.21,6.31 v 13.32 h 5.23 v -13.27 c 0,-4.16 2.4,-6.36 5.86,-6.36 3.46,0 5.26,2.25 5.26,6.31 v 13.32 z m 77.83,-23.94 h -8.51 v -7.26 h -5.26 v 7.26 h -4.86 v 4.76 h 4.86 v 10.91 c 0,5.56 2.15,8.87 8.31,8.87 a 12.24,12.24 0 0 0 6.51,-1.85 l -1.5,-4.46 a 9.62,9.62 0 0 1 -4.61,1.35 c -2.6,0 -3.46,-1.6 -3.46,-4 v -10.82 h 8.51 z m 44.43,-0.6 a 7.06,7.06 0 0 0 -6.31,3.51 v -2.91 h -5.16 v 23.94 h 5.21 v -13.42 c 0,-4 1.7,-6.16 5.11,-6.16 a 8.49,8.49 0 0 1 3.26,0.6 l 1.6,-4.91 a 11.13,11.13 0 0 0 -3.71,-0.65 z m -67.17,2.5 a 17.9,17.9 0 0 0 -9.77,-2.5 c -6.06,0 -10,2.91 -10,7.66 0,3.91 2.9,6.31 8.26,7.06 l 2.45,0.35 c 2.85,0.4 4.21,1.15 4.21,2.5 0,1.85 -1.9,2.91 -5.46,2.91 a 12.76,12.76 0 0 1 -8,-2.5 l -2.37,4.05 a 17.27,17.27 0 0 0 10.37,3.11 c 6.91,0 10.92,-3.26 10.92,-7.81 0,-4.21 -3.16,-6.41 -8.36,-7.16 l -2.45,-0.35 c -2.25,-0.3 -4.06,-0.75 -4.06,-2.35 0,-1.75 1.7,-2.8 4.56,-2.8 a 15.43,15.43 0 0 1 7.46,2.05 z m 139.52,-2.5 a 7.06,7.06 0 0 0 -6.31,3.51 v -2.91 h -5.16 v 23.94 h 5.21 v -13.42 c 0,-4 1.7,-6.16 5.11,-6.16 a 8.49,8.49 0 0 1 3.26,0.6 l 1.6,-4.91 a 11.13,11.13 0 0 0 -3.71,-0.65 z m -67.09,12.57 c 0,7.26 5.06,12.57 12.77,12.57 a 12.54,12.54 0 0 0 8.61,-2.86 l -2.5,-4.21 a 10.52,10.52 0 0 1 -6.26,2.15 c -4.16,0 -7.21,-3.06 -7.21,-7.66 0,-4.6 3.06,-7.61 7.21,-7.66 a 10.52,10.52 0 0 1 6.26,2.15 l 2.5,-4.21 a 12.54,12.54 0 0 0 -8.61,-2.86 c -7.71,0 -12.77,5.31 -12.77,12.57 z m 48.78,0 v -12 h -5.21 v 2.91 a 9.08,9.08 0 0 0 -7.56,-3.51 c -6.71,0 -12,5.26 -12,12.57 0,7.31 5.26,12.57 12,12.57 a 9.08,9.08 0 0 0 7.56,-3.51 v 2.9 h 5.21 z m -19.38,0 c 0,-4.21 2.75,-7.66 7.26,-7.66 4.31,0 7.21,3.31 7.21,7.66 0,4.35 -2.9,7.66 -7.21,7.66 -4.51,0 -7.26,-3.46 -7.26,-7.66 z m -62.86,-12.57 c -7,0 -11.92,5.11 -11.92,12.57 0,7.61 5.11,12.57 12.27,12.57 a 14.55,14.55 0 0 0 9.82,-3.36 l -2.55,-3.86 a 11.41,11.41 0 0 1 -7,2.5 c -3.36,0 -6.41,-1.55 -7.16,-5.86 h 17.78 c 0.05,-0.65 0.1,-1.3 0.1,-2 0,-7.46 -4.66,-12.57 -11.37,-12.57 z m -0.1,4.66 c 3.36,0 5.51,2.1 6.06,5.81 h -12.41 c 0.55,-3.46 2.65,-5.81 6.36,-5.81 z m 130.65,7.91 v -21.59 h -5.21 v 12.52 a 9.08,9.08 0 0 0 -7.56,-3.51 c -6.71,0 -12,5.26 -12,12.57 0,7.31 5.26,12.57 12,12.57 a 9.08,9.08 0 0 0 7.56,-3.51 v 2.9 h 5.21 z m 6.09,9.76 a 1.53,1.53 0 0 1 0.6,0.12 1.57,1.57 0 0 1 0.49,0.33 1.53,1.53 0 0 1 0.33,0.48 1.49,1.49 0 0 1 0,1.18 1.54,1.54 0 0 1 -0.33,0.48 1.6,1.6 0 0 1 -0.49,0.33 1.5,1.5 0 0 1 -0.6,0.12 1.55,1.55 0 0 1 -1.44,-0.93 1.5,1.5 0 0 1 0,-1.18 1.52,1.52 0 0 1 0.82,-0.81 1.57,1.57 0 0 1 0.64,-0.12 z m 0,2.7 a 1.13,1.13 0 0 0 0.46,-0.09 1.21,1.21 0 0 0 0.37,-0.25 1.19,1.19 0 0 0 0,-1.68 1.18,1.18 0 0 0 -0.37,-0.25 1.15,1.15 0 0 0 -0.46,-0.09 1.19,1.19 0 0 0 -0.47,0.09 1.19,1.19 0 0 0 -0.38,1.93 1.19,1.19 0 0 0 0.38,0.25 1.18,1.18 0 0 0 0.49,0.09 z m 0.09,-1.9 a 0.64,0.64 0 0 1 0.42,0.12 0.4,0.4 0 0 1 0.15,0.33 0.38,0.38 0 0 1 -0.12,0.29 0.56,0.56 0 0 1 -0.33,0.14 l 0.46,0.53 h -0.36 l -0.43,-0.53 h -0.14 v 0.53 h -0.3 v -1.4 z m -0.35,0.26 v 0.38 h 0.35 a 0.34,0.34 0 0 0 0.19,0 0.16,0.16 0 0 0 0.07,-0.14 0.16,0.16 0 0 0 -0.07,-0.14 0.34,0.34 0 0 0 -0.19,0 z m -25.19,-10.82 c 0,-4.21 2.75,-7.66 7.26,-7.66 4.31,0 7.21,3.31 7.21,7.66 0,4.35 -2.9,7.66 -7.21,7.66 -4.51,0 -7.26,-3.46 -7.26,-7.66 z m -175.9,0 v -12 h -5.21 v 2.91 a 9.08,9.08 0 0 0 -7.53,-3.48 c -6.71,0 -12,5.26 -12,12.57 0,7.31 5.26,12.57 12,12.57 a 9.08,9.08 0 0 0 7.56,-3.51 v 2.9 h 5.21 z m -19.38,0 c 0,-4.21 2.75,-7.66 7.26,-7.66 4.31,0 7.21,3.31 7.21,7.66 0,4.35 -2.9,7.66 -7.21,7.66 -4.51,0 -7.26,-3.45 -7.26,-7.66 z"
     id="path10"
     inkscape:connector-curvature="0"
     style="fill:#231f20" />
  <g
     id="_Group_"
     data-name="&lt;Group&gt;"
     transform="translate(-37.965293,-18.990838)">
    <rect
       class="cls-3"
       x="80.459999"
       y="26.68"
       width="31.5"
       height="56.610001"
       id="rect12"
       style="fill:#ff5f00" />
    <path
       id="_Path_"
       data-name="&lt;Path&gt;"
       class="cls-4"
       d="m 82.46,55 a 35.94,35.94 0 0 1 13.75,-28.3 36,36 0 1 0 0,56.61 A 35.94,35.94 0 0 1 82.46,55 Z"
       inkscape:connector-curvature="0"
       style="fill:#eb001b" />
    <path
       class="cls-5"
       d="M 154.46,55 A 36,36 0 0 1 96.21,83.3 36,36 0 0 0 96.21,26.69 36,36 0 0 1 154.46,55 Z"
       id="path15"
       inkscape:connector-curvature="0"
       style="fill:#f79e1b" />
    <path
       class="cls-5"
       d="m 151,77.29 v -1.16 h 0.47 V 75.9 h -1.17 v 0.24 h 0.47 v 1.16 z m 2.31,0 v -1.4 H 153 l -0.42,1 -0.42,-1 h -0.37 v 1.4 H 152 v -1.05 l 0.39,0.91 h 0.27 l 0.39,-0.91 v 1.06 z"
       id="path17"
       inkscape:connector-curvature="0"
       style="fill:#f79e1b" />
  </g>
</svg>
