<?xml version="1.0" encoding="UTF-8" standalone="no"?>
<!-- Created with Inkscape (http://www.inkscape.org/) -->

<svg
   xmlns:dc="http://purl.org/dc/elements/1.1/"
   xmlns:cc="http://creativecommons.org/ns#"
   xmlns:rdf="http://www.w3.org/1999/02/22-rdf-syntax-ns#"
   xmlns:svg="http://www.w3.org/2000/svg"
   xmlns="http://www.w3.org/2000/svg"
   xmlns:sodipodi="http://sodipodi.sourceforge.net/DTD/sodipodi-0.dtd"
   xmlns:inkscape="http://www.inkscape.org/namespaces/inkscape"
   version="1.0"
   width="250"
   height="52"
   id="svg2"
   inkscape:version="0.47 r22583"
   sodipodi:docname="CoatFlag.svg">
  <metadata
     id="metadata22">
    <rdf:RDF>
      <cc:Work
         rdf:about="">
        <dc:format>image/svg+xml</dc:format>
        <dc:type
           rdf:resource="http://purl.org/dc/dcmitype/StillImage" />
      </cc:Work>
    </rdf:RDF>
  </metadata>
  <sodipodi:namedview
     pagecolor="#ffffff"
     bordercolor="#666666"
     borderopacity="1"
     objecttolerance="10"
     gridtolerance="10"
     guidetolerance="10"
     inkscape:pageopacity="0"
     inkscape:pageshadow="2"
     inkscape:window-width="1280"
     inkscape:window-height="1004"
     id="namedview20"
     showgrid="false"
     inkscape:zoom="2.16"
     inkscape:cx="52.777778"
     inkscape:cy="26"
     inkscape:window-x="-8"
     inkscape:window-y="-8"
     inkscape:window-maximized="1"
     inkscape:current-layer="svg2" />
  <defs
     id="defs4">
    <inkscape:perspective
       sodipodi:type="inkscape:persp3d"
       inkscape:vp_x="0 : 26 : 1"
       inkscape:vp_y="0 : 1000 : 0"
       inkscape:vp_z="250 : 26 : 1"
       inkscape:persp3d-origin="125 : 17.333333 : 1"
       id="perspective24" />
  </defs>
  <g
     transform="translate(-173.76543,-272.64083)"
     id="layer1"
     style="fill:#000088;fill-opacity:1">
    <g
       transform="matrix(1.0806398,0,0,1.0806398,-170.89662,249.83272)"
       id="g2420"
       style="fill:#000088;fill-opacity:1">
      <path
         d="M 514.58,57.04 L 531.72,33.53 L 539.821,33.53 L 522.68,57.04 L 514.58,57.04 z M 504.65,22.7 L 549.75,22.7 L 549.75,67.85 L 504.65,67.85 L 504.65,22.7 z M 510.96,29.02 L 510.96,61.52 L 543.4,61.52 L 543.4,29.02 L 510.96,29.02 L 510.96,29.02 z"
         id="path2384"
         style="fill:#000088;fill-rule:evenodd;fill-opacity:1" />
      <g
         id="g2386"
         style="fill:#000088;fill-opacity:1">
        <path
           d="M 330.12,51.542 L 329.26,51.036 L 328.326,50.706 L 327.32,50.485 L 326.352,50.397 L 322.507,50.397 L 322.507,65.589 L 325.776,65.589 L 327.213,65.48 L 328.398,65.259 L 329.475,64.863 L 330.374,64.335 L 331.126,63.652 L 331.702,62.749 L 332.133,61.78 L 332.455,60.658 L 332.636,59.381 L 332.707,57.927 L 332.636,56.739 L 332.455,55.528 L 332.133,54.383 L 331.702,53.326 L 330.982,52.358 L 330.12,51.542 z M 327.606,67.417 L 326.028,67.527 L 320.138,67.527 L 320.138,48.482 L 325.488,48.482 L 326.746,48.548 L 328.111,48.657 L 329.367,48.922 L 330.589,49.275 L 331.81,49.914 L 332.744,50.75 L 333.569,51.652 L 334.215,52.753 L 334.684,53.899 L 334.972,55.175 L 335.187,56.54 L 335.221,57.927 L 335.187,59.446 L 334.936,60.878 L 334.575,62.177 L 334.074,63.387 L 333.355,64.445 L 332.564,65.325 L 331.558,66.117 L 330.446,66.733 L 329.081,67.174 L 327.606,67.417 z"
           id="path2388"
           style="fill:#000088;fill-rule:evenodd;fill-opacity:1" />
        <path
           d="M 342.943,55.638 L 342.002,55.748 L 341.206,56.144 L 340.52,56.606 L 340.014,57.267 L 339.617,58.059 L 339.365,58.895 L 339.221,59.821 L 346.336,59.821 L 346.263,58.918 L 346.082,58.059 L 345.76,57.267 L 345.252,56.628 L 344.64,56.143 L 343.88,55.747 L 342.943,55.638 z M 339.186,61.384 L 339.186,61.648 L 339.222,62.529 L 339.437,63.344 L 339.727,64.136 L 340.123,64.884 L 340.701,65.457 L 341.352,65.919 L 342.109,66.182 L 343.012,66.293 L 343.88,66.182 L 344.64,65.919 L 345.252,65.5 L 345.76,64.884 L 346.121,64.136 L 346.336,63.277 L 348.469,63.277 L 348.144,64.532 L 347.639,65.567 L 346.916,66.382 L 346.121,67.042 L 345.144,67.504 L 344.024,67.747 L 342.831,67.856 L 341.566,67.747 L 340.482,67.438 L 339.508,66.953 L 338.715,66.358 L 338.061,65.566 L 337.558,64.642 L 337.197,63.562 L 336.943,62.395 L 336.87,61.141 L 336.943,59.885 L 337.197,58.675 L 337.558,57.551 L 338.061,56.604 L 338.749,55.746 L 339.579,55.019 L 340.592,54.49 L 341.712,54.204 L 343.011,54.094 L 344.24,54.204 L 345.251,54.447 L 346.12,54.909 L 346.842,55.569 L 347.384,56.273 L 347.853,57.176 L 348.214,58.1 L 348.395,59.136 L 348.504,60.237 L 348.541,61.382 L 339.186,61.382 L 339.186,61.384 z"
           id="path2390"
           style="fill:#000088;fill-rule:evenodd;fill-opacity:1" />
        <polygon
           points="359.677,67.571 359.604,65.501 358.92,66.316 358.24,66.955 357.414,67.351 356.52,67.637 355.445,67.748 354.297,67.637 353.329,67.351 352.538,66.955 351.932,66.382 351.429,65.633 351.141,64.731 350.925,63.696 350.853,62.551 350.853,54.316 353.148,54.316 353.148,62.418 353.185,63.124 353.29,63.807 353.506,64.378 353.759,64.907 354.082,65.391 354.585,65.7 355.265,65.92 356.056,65.963 357.021,65.854 357.773,65.589 358.382,65.127 358.816,64.555 359.174,63.872 359.425,63.102 359.53,62.198 359.604,61.296 359.604,54.316 361.79,54.316 361.79,64.158 361.861,67.571 359.677,67.571 "
           id="polygon2392"
           style="fill:#000088;fill-rule:evenodd;fill-opacity:1" />
        <polygon
           points="369.142,67.748 368.211,67.681 367.456,67.417 366.848,66.999 366.381,66.427 366.129,65.633 366.023,64.665 366.023,55.924 363.513,55.924 363.513,54.316 366.023,54.316 366.023,51.718 368.245,50.793 368.245,54.316 371.111,54.316 371.111,55.924 368.245,55.924 368.245,64.378 368.354,64.95 368.496,65.391 368.855,65.7 369.32,65.854 370.002,65.92 371.219,65.81 371.219,67.571 370.183,67.681 369.142,67.748 "
           id="polygon2394"
           style="fill:#000088;fill-rule:evenodd;fill-opacity:1" />
        <polygon
           points="377.441,67.857 376.431,67.813 375.532,67.637 374.665,67.329 373.908,66.866 373.296,66.294 372.827,65.567 372.539,64.643 372.432,63.542 374.665,63.542 374.738,64.357 375.063,65.039 375.459,65.567 376.035,65.92 376.719,66.184 377.549,66.25 378.234,66.184 378.921,66.03 379.533,65.721 379.966,65.237 380.327,64.708 380.435,64.004 380.327,63.431 380.112,62.881 379.712,62.529 379.245,62.198 378.415,61.912 377.478,61.626 376.611,61.428 375.928,61.252 375.207,60.966 374.558,60.679 373.979,60.283 373.477,59.821 373.115,59.315 372.861,58.632 372.793,57.773 372.861,56.849 373.223,56.034 373.729,55.374 374.341,54.889 375.1,54.449 375.928,54.206 376.792,54.03 377.658,53.986 378.596,54.03 379.463,54.206 380.22,54.492 380.938,54.889 381.479,55.461 381.948,56.122 382.236,56.981 382.346,57.994 380.112,57.994 379.966,57.179 379.678,56.496 379.102,56.034 378.452,55.704 377.586,55.593 376.973,55.638 376.362,55.813 375.82,56.034 375.352,56.386 375.063,56.914 374.956,57.531 375.063,58.103 375.244,58.521 375.605,58.874 376.108,59.204 377.046,59.557 377.91,59.777 378.813,60.019 379.533,60.239 380.22,60.504 380.864,60.79 381.443,61.164 381.948,61.626 382.31,62.177 382.561,62.881 382.671,63.74 382.561,64.665 382.31,65.458 381.841,66.14 381.335,66.647 380.687,67.152 379.932,67.439 379.102,67.725 378.308,67.813 377.441,67.857 "
           id="polygon2396"
           style="fill:#000088;fill-rule:evenodd;fill-opacity:1" />
        <polygon
           points="390.42,67.857 389.16,67.748 388.003,67.417 387.029,66.955 386.162,66.36 385.475,65.567 384.898,64.621 384.498,63.52 384.283,62.375 384.21,61.054 384.283,59.754 384.498,58.5 384.898,57.399 385.475,56.386 386.162,55.527 387.029,54.845 388.04,54.316 389.233,53.986 390.529,53.876 391.609,53.941 392.555,54.162 393.413,54.515 394.14,55.021 394.802,55.66 395.308,56.496 395.639,57.464 395.813,58.544 393.568,58.544 393.413,57.641 393.172,56.914 392.731,56.342 392.114,55.924 391.409,55.66 390.529,55.571 389.595,55.66 388.799,55.924 388.149,56.342 387.605,56.914 387.173,57.597 386.885,58.39 386.668,59.183 386.595,60.084 386.523,60.943 386.595,61.803 386.668,62.618 386.92,63.454 387.246,64.202 387.642,64.885 388.149,65.391 388.799,65.876 389.595,66.14 390.42,66.25 391.302,66.14 392.05,65.81 392.731,65.391 393.172,64.775 393.503,63.982 393.635,63.08 395.882,63.08 395.66,64.202 395.308,65.215 394.802,66.03 394.14,66.647 393.392,67.175 392.488,67.527 391.499,67.813 390.42,67.857 "
           id="polygon2398"
           style="fill:#000088;fill-rule:evenodd;fill-opacity:1" />
        <polygon
           points="406.8,67.527 406.8,59.403 406.714,58.698 406.624,58.015 406.426,57.42 406.186,56.893 405.79,56.43 405.261,56.1 404.599,55.88 403.829,55.857 402.883,55.945 402.199,56.21 401.518,56.672 401.098,57.244 400.724,58.015 400.483,58.786 400.35,59.622 400.262,60.525 400.262,67.527 398.083,67.527 398.083,48.482 400.262,48.482 400.262,56.319 400.943,55.483 401.627,54.845 402.463,54.404 403.388,54.162 404.422,54.052 405.568,54.162 406.538,54.404 407.329,54.845 407.968,55.417 408.451,56.166 408.739,57.025 408.938,58.103 408.98,59.271 408.98,67.527 406.8,67.527 "
           id="polygon2400"
           style="fill:#000088;fill-rule:evenodd;fill-opacity:1" />
        <path
           d="M 417.393,55.638 L 416.468,55.748 L 415.674,56.144 L 415.035,56.606 L 414.552,57.267 L 414.112,58.059 L 413.871,58.895 L 413.716,59.821 L 420.761,59.821 L 420.674,58.918 L 420.498,58.059 L 420.188,57.267 L 419.682,56.628 L 419.065,56.143 L 418.317,55.747 L 417.393,55.638 z M 413.693,61.384 L 413.693,61.648 L 413.714,62.529 L 413.934,63.344 L 414.222,64.136 L 414.618,64.884 L 415.19,65.457 L 415.829,65.919 L 416.577,66.182 L 417.457,66.293 L 418.316,66.182 L 419.064,65.919 L 419.681,65.5 L 420.187,64.884 L 420.54,64.136 L 420.76,63.277 L 422.854,63.277 L 422.544,64.532 L 422.036,65.567 L 421.354,66.382 L 420.54,67.042 L 419.572,67.504 L 418.493,67.747 L 417.28,67.856 L 416.048,67.747 L 414.971,67.438 L 414.047,66.953 L 413.23,66.358 L 412.572,65.566 L 412.086,64.642 L 411.733,63.562 L 411.471,62.395 L 411.402,61.141 L 411.471,59.885 L 411.733,58.675 L 412.086,57.551 L 412.572,56.604 L 413.254,55.746 L 414.091,55.019 L 415.079,54.49 L 416.181,54.204 L 417.458,54.094 L 418.691,54.204 L 419.682,54.447 L 420.54,54.909 L 421.245,55.569 L 421.796,56.273 L 422.258,57.176 L 422.611,58.1 L 422.786,59.136 L 422.897,60.237 L 422.961,61.382 L 413.693,61.382 L 413.693,61.384 z"
           id="path2402"
           style="fill:#000088;fill-rule:evenodd;fill-opacity:1" />
        <path
           d="M 437.692,58.609 L 433.794,58.609 L 433.794,65.588 L 437.647,65.588 L 438.398,65.545 L 439.125,65.435 L 439.785,65.258 L 440.424,65.082 L 440.929,64.752 L 441.394,64.29 L 441.768,63.718 L 441.945,63.035 L 442.052,62.132 L 441.945,61.207 L 441.702,60.415 L 441.283,59.754 L 440.799,59.292 L 440.139,58.983 L 439.391,58.785 L 438.552,58.697 L 437.692,58.609 z M 437.692,50.419 L 433.794,50.419 L 433.794,56.781 L 437.318,56.781 L 438.089,56.738 L 438.88,56.627 L 439.519,56.429 L 440.136,56.054 L 440.574,55.637 L 440.994,55.064 L 441.193,54.293 L 441.28,53.478 L 441.193,52.642 L 440.926,51.894 L 440.488,51.388 L 439.917,50.97 L 439.275,50.639 L 438.505,50.485 L 437.692,50.419 z M 437.646,67.527 L 431.439,67.527 L 431.439,48.482 L 437.935,48.482 L 438.902,48.548 L 439.805,48.701 L 440.751,48.987 L 441.544,49.34 L 442.272,49.846 L 442.91,50.485 L 443.396,51.277 L 443.68,52.18 L 443.791,53.259 L 443.68,54.382 L 443.396,55.306 L 442.888,56.099 L 442.161,56.738 L 441.325,57.222 L 440.312,57.575 L 441.325,57.817 L 442.271,58.191 L 443.064,58.72 L 443.679,59.38 L 444.143,60.129 L 444.427,61.12 L 444.538,62.243 L 444.427,63.431 L 444.143,64.445 L 443.679,65.258 L 443.064,65.941 L 442.38,66.491 L 441.5,66.91 L 440.575,67.197 L 439.63,67.372 L 438.662,67.483 L 437.646,67.527 z"
           id="path2404"
           style="fill:#000088;fill-rule:evenodd;fill-opacity:1" />
        <path
           d="M 453.679,60.834 L 453.017,60.834 L 452.378,60.899 L 451.653,60.943 L 450.948,61.12 L 450.286,61.34 L 449.671,61.582 L 449.185,61.935 L 448.789,62.419 L 448.524,63.058 L 448.415,63.762 L 448.524,64.533 L 448.81,65.128 L 449.296,65.678 L 449.89,65.964 L 450.552,66.251 L 451.255,66.272 L 452.157,66.251 L 452.885,65.964 L 453.411,65.678 L 453.897,65.216 L 454.205,64.622 L 454.49,63.983 L 454.645,63.278 L 454.754,62.507 L 454.799,61.736 L 454.799,60.9 L 454.403,60.9 L 454.027,60.835 L 453.679,60.835 L 453.679,60.834 z M 455.262,67.527 L 455.042,65.677 L 454.315,66.492 L 453.567,67.131 L 452.709,67.527 L 451.761,67.813 L 450.684,67.857 L 449.826,67.813 L 448.967,67.614 L 448.219,67.328 L 447.556,66.932 L 447.03,66.359 L 446.547,65.676 L 446.304,64.818 L 446.194,63.871 L 446.304,62.88 L 446.59,62.044 L 447.03,61.361 L 447.602,60.789 L 448.307,60.327 L 449.077,59.996 L 449.935,59.754 L 450.837,59.578 L 451.762,59.469 L 452.665,59.425 L 453.525,59.425 L 454.185,59.469 L 454.801,59.469 L 454.801,58.72 L 454.756,57.861 L 454.58,57.178 L 454.315,56.605 L 453.962,56.143 L 453.411,55.769 L 452.774,55.571 L 451.936,55.527 L 451.254,55.571 L 450.572,55.703 L 450.152,56.033 L 449.712,56.495 L 449.471,57.068 L 449.317,57.86 L 447.093,57.86 L 447.27,56.891 L 447.599,56.032 L 448.061,55.349 L 448.678,54.843 L 449.381,54.447 L 450.174,54.204 L 451.056,54.05 L 451.914,53.984 L 453.058,54.05 L 454.073,54.27 L 454.886,54.556 L 455.57,55.085 L 456.077,55.701 L 456.515,56.56 L 456.692,57.529 L 456.804,58.762 L 456.804,63.672 L 456.868,64.926 L 456.956,66.027 L 457.044,66.93 L 457.199,67.524 L 455.262,67.524 L 455.262,67.527 z"
           id="path2406"
           style="fill:#000088;fill-rule:evenodd;fill-opacity:1" />
        <polygon
           points="468.648,67.527 468.648,59.424 468.605,58.72 468.518,58.038 468.298,57.464 468.033,56.937 467.702,56.452 467.197,56.143 466.516,55.924 465.72,55.88 464.864,55.989 464.138,56.254 463.519,56.672 463.101,57.179 462.727,57.817 462.486,58.544 462.265,59.292 462.22,60.107 462.155,60.899 462.155,67.527 459.953,67.527 459.953,56.826 459.887,55.813 459.887,55 459.841,54.272 462.088,54.272 462.112,56.386 462.77,55.571 463.519,54.954 464.356,54.449 465.26,54.206 466.339,54.096 467.505,54.206 468.473,54.449 469.268,54.889 469.883,55.461 470.391,56.21 470.719,57.069 470.896,58.147 470.962,59.292 470.962,67.527 468.648,67.527 "
           id="polygon2408"
           style="fill:#000088;fill-rule:evenodd;fill-opacity:1" />
        <path
           d="M 482.609,67.527 L 476.354,60.063 L 482.125,54.229 L 484.984,54.229 L 479,59.954 L 485.493,67.528 L 482.609,67.528 L 482.609,67.527 z M 474.046,67.527 L 474.046,48.482 L 476.247,48.482 L 476.247,67.527 L 474.046,67.527 z"
           id="path2410"
           style="fill:#000088;fill-rule:evenodd;fill-opacity:1" />
      </g>
    </g>
  </g>
</svg>
